# xmcd
#
# Track frame offsets:
#	150
#	21277
#	42722
#	58837
#	79257
#	95165
#	117855
#	135645
#	158385
#	179072
#
# Disc length: 2663 seconds
#
# Revision: 16
# Processed by: cddbd v1.5.2PL0 Copyright (c) Steve Scherf et al.
# Submitted via: EasyCDDAExtractor 15.3.0.1
#
DISCID=8b0a650a
DTITLE=Cristian - Mi Vida Sin Tu Amor
DYEAR=1999
DGENRE=Latin
TTITLE0=Volver A Amar
TTITLE1=Tu Sombra En Mi
TTITLE2=Mi Vida Sin Tu Amor
TTITLE3=Por Amarte Asi
TTITLE4=Mas Y Mas
TTITLE5=Angel
TTITLE6=Alguna Vez
TTITLE7=Si Me Ves Llorar Por Ti
TTITLE8=Vivir Sin Ti
TTITLE9=Veronica
EXTD=YEAR: 1999
EXTT0=
EXTT1=
EXTT2=
EXTT3=
EXTT4=
EXTT5=
EXTT6=
EXTT7=
EXTT8=
EXTT9=
PLAYORDER=
